<svg width="660" height="222" viewBox="0 0 660 222" fill="none" xmlns="http://www.w3.org/2000/svg">
<path d="M248.3 151.5C241.8 151.5 235.9 149.85 230.6 146.55C225.4 143.25 221.25 138.8 218.15 133.2C215.15 127.5 213.65 121.15 213.65 114.15C213.65 107.05 215.15 100.7 218.15 95.1C221.25 89.4 225.4 84.9 230.6 81.6C235.9 78.2 241.8 76.5 248.3 76.5C253.8 76.5 258.65 77.7 262.85 80.1C267.15 82.4 270.55 85.6 273.05 89.7C275.55 93.8 276.8 98.45 276.8 103.65V124.35C276.8 129.55 275.55 134.2 273.05 138.3C270.65 142.4 267.3 145.65 263 148.05C258.7 150.35 253.8 151.5 248.3 151.5ZM251 135.9C257.1 135.9 262 133.85 265.7 129.75C269.5 125.65 271.4 120.4 271.4 114C271.4 109.7 270.55 105.9 268.85 102.6C267.15 99.3 264.75 96.75 261.65 94.95C258.65 93.05 255.1 92.1 251 92.1C247 92.1 243.45 93.05 240.35 94.95C237.35 96.75 234.95 99.3 233.15 102.6C231.45 105.9 230.6 109.7 230.6 114C230.6 118.3 231.45 122.1 233.15 125.4C234.95 128.7 237.35 131.3 240.35 133.2C243.45 135 247 135.9 251 135.9ZM270.35 150V130.65L273.2 113.1L270.35 95.7V78H286.85V150H270.35ZM338.312 151.5C331.212 151.5 324.762 149.85 318.962 146.55C313.262 143.25 308.762 138.75 305.462 133.05C302.162 127.35 300.512 121 300.512 114C300.512 106.9 302.162 100.55 305.462 94.95C308.762 89.25 313.262 84.75 318.962 81.45C324.762 78.15 331.212 76.5 338.312 76.5C343.912 76.5 349.112 77.6 353.912 79.8C358.812 81.9 362.962 84.95 366.362 88.95L355.562 99.9C353.462 97.4 350.912 95.55 347.912 94.35C345.012 93.05 341.812 92.4 338.312 92.4C334.212 92.4 330.562 93.35 327.362 95.25C324.262 97.05 321.812 99.55 320.012 102.75C318.312 105.95 317.462 109.7 317.462 114C317.462 118.2 318.312 121.95 320.012 125.25C321.812 128.45 324.262 131 327.362 132.9C330.562 134.7 334.212 135.6 338.312 135.6C341.812 135.6 345.012 135 347.912 133.8C350.912 132.5 353.462 130.6 355.562 128.1L366.362 139.05C362.962 143.05 358.812 146.15 353.912 148.35C349.112 150.45 343.912 151.5 338.312 151.5ZM407.807 151.5C401.707 151.5 396.257 150.15 391.457 147.45C386.757 144.75 383.057 141.05 380.357 136.35C377.757 131.55 376.457 126.05 376.457 119.85V78H392.957V119.1C392.957 122.6 393.507 125.6 394.607 128.1C395.807 130.5 397.507 132.35 399.707 133.65C402.007 134.95 404.707 135.6 407.807 135.6C412.607 135.6 416.257 134.2 418.757 131.4C421.357 128.5 422.657 124.4 422.657 119.1V78H439.157V119.85C439.157 126.15 437.807 131.7 435.107 136.5C432.507 141.2 428.857 144.9 424.157 147.6C419.457 150.2 414.007 151.5 407.807 151.5ZM455.898 150V78H472.398V150H455.898ZM464.148 64.8C461.348 64.8 458.998 63.85 457.098 61.95C455.298 60.05 454.398 57.7 454.398 54.9C454.398 52.1 455.298 49.75 457.098 47.85C458.998 45.95 461.348 45 464.148 45C467.048 45 469.398 45.95 471.198 47.85C472.998 49.75 473.898 52.1 473.898 54.9C473.898 57.7 472.998 60.05 471.198 61.95C469.398 63.85 467.048 64.8 464.148 64.8ZM501.854 150V48H518.354V150H501.854ZM484.604 93V78H535.604V93H484.604ZM570.843 150.75L540.093 78H558.243L579.243 131.4H573.993L596.193 78H614.493L581.043 150.75H570.843ZM549.393 180L571.743 133.95L581.043 150.75L567.693 180H549.393Z" fill="#393939"/>
<path d="M84.0117 28.7428V193.657" stroke="#393939" stroke-width="18"/>
<path d="M0 112.756H164.914" stroke="#393939" stroke-width="18"/>
<path d="M21.7783 53.635L143.13 174.987" stroke="#393939" stroke-width="18"/>
<path d="M146.247 53.635L24.8945 174.987" stroke="#393939" stroke-width="18"/>
</svg>
