<svg width="36" height="36" viewBox="0 0 36 36" fill="none" xmlns="http://www.w3.org/2000/svg">
<circle cx="18" cy="18" r="18" fill="#D9D9D9"/>
<g clip-path="url(#clip0_248_20)">
<path d="M18 17.5C20.7625 17.5 23 15.1879 23 12.3333C23 9.47871 20.7625 7.16663 18 7.16663C15.2375 7.16663 13 9.47871 13 12.3333C13 15.1879 15.2375 17.5 18 17.5ZM18 20.0833C14.6625 20.0833 8 21.8141 8 25.25V26.5416C8 27.252 8.5625 27.8333 9.25 27.8333H26.75C27.4375 27.8333 28 27.252 28 26.5416V25.25C28 21.8141 21.3375 20.0833 18 20.0833Z" fill="white"/>
</g>
<defs>
<clipPath id="clip0_248_20">
<rect width="30" height="31" fill="white" transform="translate(3 2)"/>
</clipPath>
</defs>
</svg>
