<svg width="660" height="222" viewBox="0 0 660 222" fill="none" xmlns="http://www.w3.org/2000/svg">
<path d="M241.7 151.5C237.7 151.5 233.85 151 230.15 150C226.45 148.9 223.05 147.4 219.95 145.5C216.85 143.5 214.15 141.1 211.85 138.3L222.35 127.8C224.85 130.7 227.7 132.9 230.9 134.4C234.2 135.8 237.9 136.5 242 136.5C245.7 136.5 248.5 135.95 250.4 134.85C252.3 133.75 253.25 132.15 253.25 130.05C253.25 127.85 252.35 126.15 250.55 124.95C248.75 123.75 246.4 122.75 243.5 121.95C240.7 121.05 237.7 120.15 234.5 119.25C231.4 118.35 228.4 117.15 225.5 115.65C222.7 114.05 220.4 111.9 218.6 109.2C216.8 106.5 215.9 103 215.9 98.7C215.9 94.1 216.95 90.15 219.05 86.85C221.25 83.55 224.3 81 228.2 79.2C232.2 77.4 236.95 76.5 242.45 76.5C248.25 76.5 253.35 77.55 257.75 79.65C262.25 81.65 266 84.7 269 88.8L258.5 99.3C256.4 96.7 254 94.75 251.3 93.45C248.6 92.15 245.5 91.5 242 91.5C238.7 91.5 236.15 92 234.35 93C232.55 94 231.65 95.45 231.65 97.35C231.65 99.35 232.55 100.9 234.35 102C236.15 103.1 238.45 104.05 241.25 104.85C244.15 105.65 247.15 106.55 250.25 107.55C253.45 108.45 256.45 109.75 259.25 111.45C262.15 113.05 264.5 115.25 266.3 118.05C268.1 120.75 269 124.3 269 128.7C269 135.7 266.55 141.25 261.65 145.35C256.75 149.45 250.1 151.5 241.7 151.5ZM321.153 151.5C315.653 151.5 310.753 150.35 306.453 148.05C302.153 145.65 298.753 142.4 296.253 138.3C293.853 134.2 292.653 129.55 292.653 124.35V103.65C292.653 98.45 293.903 93.8 296.403 89.7C298.903 85.6 302.303 82.4 306.603 80.1C310.903 77.7 315.753 76.5 321.153 76.5C327.653 76.5 333.503 78.2 338.703 81.6C344.003 84.9 348.153 89.4 351.153 95.1C354.253 100.7 355.803 107.05 355.803 114.15C355.803 121.15 354.253 127.5 351.153 133.2C348.153 138.8 344.003 143.25 338.703 146.55C333.503 149.85 327.653 151.5 321.153 151.5ZM318.453 135.9C322.453 135.9 325.953 135 328.953 133.2C332.053 131.3 334.453 128.7 336.153 125.4C337.953 122.1 338.853 118.3 338.853 114C338.853 109.7 337.953 105.9 336.153 102.6C334.453 99.3 332.053 96.75 328.953 94.95C325.953 93.05 322.453 92.1 318.453 92.1C314.453 92.1 310.903 93.05 307.803 94.95C304.703 96.75 302.303 99.3 300.603 102.6C298.903 105.9 298.053 109.7 298.053 114C298.053 118.3 298.903 122.1 300.603 125.4C302.303 128.7 304.703 131.3 307.803 133.2C310.903 135 314.453 135.9 318.453 135.9ZM282.603 180V78H299.103V97.35L296.253 114.9L299.103 132.3V180H282.603ZM399.765 151.5C393.265 151.5 387.365 149.85 382.065 146.55C376.865 143.25 372.715 138.8 369.615 133.2C366.615 127.5 365.115 121.15 365.115 114.15C365.115 107.05 366.615 100.7 369.615 95.1C372.715 89.4 376.865 84.9 382.065 81.6C387.365 78.2 393.265 76.5 399.765 76.5C405.265 76.5 410.115 77.7 414.315 80.1C418.615 82.4 422.015 85.6 424.515 89.7C427.015 93.8 428.265 98.45 428.265 103.65V124.35C428.265 129.55 427.015 134.2 424.515 138.3C422.115 142.4 418.765 145.65 414.465 148.05C410.165 150.35 405.265 151.5 399.765 151.5ZM402.465 135.9C408.565 135.9 413.465 133.85 417.165 129.75C420.965 125.65 422.865 120.4 422.865 114C422.865 109.7 422.015 105.9 420.315 102.6C418.615 99.3 416.215 96.75 413.115 94.95C410.115 93.05 406.565 92.1 402.465 92.1C398.465 92.1 394.915 93.05 391.815 94.95C388.815 96.75 386.415 99.3 384.615 102.6C382.915 105.9 382.065 109.7 382.065 114C382.065 118.3 382.915 122.1 384.615 125.4C386.415 128.7 388.815 131.3 391.815 133.2C394.915 135 398.465 135.9 402.465 135.9ZM421.815 150V130.65L424.665 113.1L421.815 95.7V78H438.315V150H421.815ZM456.627 150V78H473.127V150H456.627ZM473.127 109.95L467.427 107.1C467.427 98 469.427 90.65 473.427 85.05C477.527 79.35 483.677 76.5 491.877 76.5C495.477 76.5 498.727 77.15 501.627 78.45C504.527 79.75 507.227 81.85 509.727 84.75L498.927 95.85C497.627 94.45 496.177 93.45 494.577 92.85C492.977 92.25 491.127 91.95 489.027 91.95C484.427 91.95 480.627 93.4 477.627 96.3C474.627 99.2 473.127 103.75 473.127 109.95ZM563.461 150L533.011 113.25L563.311 78H582.961L548.161 117.6L548.911 108.15L584.461 150H563.461ZM517.711 150V42H534.211V150H517.711Z" fill="#393939"/>
<path d="M84.0117 28.7428V193.657" stroke="#393939" stroke-width="18"/>
<path d="M0 112.756H164.914" stroke="#393939" stroke-width="18"/>
<path d="M21.7783 53.635L143.13 174.987" stroke="#393939" stroke-width="18"/>
<path d="M146.247 53.635L24.8945 174.987" stroke="#393939" stroke-width="18"/>
</svg>
